<svg id="Layer_1" data-name="Layer 1" xmlns="http://www.w3.org/2000/svg" viewBox="0 0 810.63 437.61"><defs><style>.cls-1{fill:#fff;}.cls-2{fill:#ee0026;}</style></defs><polygon class="cls-1" points="57.28 8.8 57.28 31.6 15.86 31.6 15.86 429.42 777.49 429.42 777.49 383.2 794.46 383.2 794.46 8.8 57.28 8.8"/><path class="cls-2" d="M697.13,147.52l4.29-23.63c1.93-7.26-26,2-24.17,27.61C678.62,162.76,695.25,155.64,697.13,147.52ZM73.19,24.71v22.8H31.77v366h729.8V367.29h17V24.71ZM723,161.26l13.38-70.21-6.76-3.59,21.78-7.64L736,158.62c-1.42,6.73,3.15,6.9,9.79,0l2.4.55C736.41,174.4,720.68,171.94,723,161.26Zm-6.82-45.65L707.86,158c-1.37,6.78,1.79,6.92,8.38,0l1.83.23c-13.46,19.09-29,14.47-24-1.86-15.75,16.64-21.58,16.26-26.35,8.59-3.34-6.38-1.85-15.92,6.67-29.95C688.82,112.52,716.33,108.37,716.21,115.61Zm-274-13.11C454.35,72,521.81,83.27,574.28,127.9l82.18-79.42h15.76L596.46,179.17l-22.18-.45a120.48,120.48,0,0,0-4.61-30.95L536,178.72l-25.4.45,56-43C534.71,89.49,457.84,75.55,451,106.66c-3.86,22.79,13.11,38.88,41.81,51.27,9.95,2.66,14.56-.29,12.49-11.45,5.09-1.82,9.38-1.1,10.76,4.06,3.24,10.47-4.3,15.55-21.66,11.1C455.38,151.65,431.74,121.42,442.22,102.5Zm210.16,36.85c28.48,30.32-30.32,42.53-28,22.06,6.36-11.25,13.16,4.67,24.78,4.15,8.72-1.8,1.91-10.64-12-22.7C621,127.13,648.8,110,659.54,115.22c11.57,8.36-1.85,17.26-5.9,12.63-2.65-5.43-5.83-8-9.57-5.91C640.47,125,643.86,130.28,652.38,139.35ZM402.91,121.94l-3.79,18.52c12-21.12,36.69-32.84,35.72-19.12l-9.17,37c-1.41,6.78,3.18,6.94,9.78,0l2.36.59c-11.68,15.2-27.45,12.74-25,2.08l6.83-30.72c1.2-4.8-3.34-5.07-9.06,1L402,141.07a22.78,22.78,0,0,0-5.45,11.54l-2.11,12.44c-.75,5.4-2.33,5.79-4.75,6.14l-4.21-.26c-3.32,0-4.59-1.68-3.29-7.7l6.26-30.69c1.95-7.31-1.9-5.74-9.33-.65C389.32,116.69,403.11,114.69,402.91,121.94ZM377.27,86.05a9.19,9.19,0,1,1-9.22,9.18A9.2,9.2,0,0,1,377.27,86.05ZM376,121.94l-8.32,38.65c-1.4,6.82,3.22,6.93,9.84,0l2.33.58c-11.69,15.23-27.44,12.76-25.07,2.06l6.84-30.69c1.92-7.31-1.93-5.74-9.33-.65C362.39,116.69,376.18,114.69,376,121.94Zm-48.11-1-4,32.4c2.59-7,8.68-36.16,21.78-37.12,7.28-.33,5.2,14-.49,15.16-8.3,1.11-13.4,6.7-18.79,27.32-1.8,16.1-7,12.64-10.31,12.81-3.31-.21-5.36-2.05-4.1-7.75l5.19-30.89c1.94-7.25-1.92-5.74-9.31-.63C317.92,117.1,328,113.73,327.88,121ZM301.45,86.05a9.19,9.19,0,1,1-9.18,9.18A9.23,9.23,0,0,1,301.45,86.05Zm2.82,35.11-8.35,38.69c-1.39,6.79,3.21,6.94,9.84,0l2.34.6c-11.7,15.2-27.46,12.78-25.07,2.06l6.85-30.73c1.88-7.27-1.91-5.73-9.36-.59C290.66,115.94,304.42,113.94,304.27,121.16Zm-36.48-5.72c8.22-1.12,10.32,6.16,8.47,16l-6.13,27.3q-3.18,10,12.48-2.6c-10.73,15.33-27.72,20.27-27.31,9.41l6.14-23.76c5.9-20.66-.54-18.91-12.73-4.7-10.47,10.79-9.79,18.2-12.71,34.58l-13.64-.22,15.76-78.12-7.29-2.87L253.67,82l-10.14,54.15A49.25,49.25,0,0,1,267.79,115.44Zm-147.93-7.28c19.79-17.2,45.81-17.24,55.05,2.94,5.9,14.58-7.2,30.05-19.82,27.84,28.25-25.09-5.4-41.4-22.91-25.92-32.49,30.4-.71,64.28,32.84,58.31,26-5,34.5-33,19.41-59.5-15.73-35.45-8.28-67.3,26-71.9,44.45-3.25,48.5,45.43,5.26,52.4,18.15-18.53,17-42.46-6.32-42.12-17.09,2.62-17.09,31.95-.36,57.21,23.65,46.55-13.76,74.69-47.67,75.87C105.7,183.86,83,140.14,119.86,108.16ZM737.55,390.52H54.71v-319H73.19V367.29H737.55ZM210.82,311.46a35.16,35.16,0,0,0,16.11,3.45,43.69,43.69,0,0,0,21.31-5.76c6.34-4,9.18-9.23,9.18-15.56a90.82,90.82,0,0,0-1.13-9.2c-.56-4.62-1.14-8.07-1.71-10.93-.59-3.45-6.34-32.26-7.48-36.27-.6-1.17.64-2.34,2-3.88,3.07-3.55,13.53-12.82,13.53-12.82s1-1.08,1.52-1,.81,1,1.4,3.25c2.85,9.78,5.15,17.26,6.88,21.87a7.45,7.45,0,0,1,.42,2.39c-.22.77-.53.88-1.56,1l-4.62.61-.58,27.63c0,2.31,1.16,4.05,3.46,5.76,1.74,1.16,4.62,1.72,7.49,1.72h1.14c5.2,0,8.66-.56,10.37-2.27a7.47,7.47,0,0,0,1.75-2.9,17.94,17.94,0,0,0,.56-5.17c0-2.88.4-4.61,2.13-4.57,1.56,0,1.7,1.69,1.89,4.57a17.53,17.53,0,0,0,1.75,6.91c1.15,2.87,3.44,4,6.33,4s5.54-.9,6.8-4a30.58,30.58,0,0,0,1.74-7.36c.18-3.15.56-4.14,1.7-4.14s1.32,1.69,1.85,4.57a31.51,31.51,0,0,0,1.73,6.91c1.71,2.87,3.45,4,6.33,4a7.5,7.5,0,0,0,6.91-4c.57-1.13,1.1-4,1.4-7.46.24-2.69,1.24-4,2.4-4s1.92,1.16,2,5.14c0,2.32.13,5.86,1.94,7.46,2.68,2.39,7.84,2.31,11.29,2.31h8.1c-.62-1.15-.62-2.27-.62-4.56,0-6.37,3.86-14.57,11.5-24.22,1.27-1.61,3.74-4.89,5.2-6.33a11.66,11.66,0,0,1,8.07-3.46c4.6,0,9.23,2.85,12.67,8.63,2.86,4.6,4.59,8.65,4.59,12.08a65.49,65.49,0,0,0-16.71-2.29,27.45,27.45,0,0,0-10.35,1.77c-2.87,1.7-4,3.43-4,6.32,0,2.29.55,4,2.87,6.89,2.29,2.29,4.6,4.11,7.5,4.61,1,.17,3,.45,4,.56,1.58.18,4.74.49,6.33.59,1.3.07,3.91.09,5.2,0s3.13-.45,3.71-.5c1.34-.12,1.81.09,2.16.35s.47,1.85.47,1.85c0,2.92-1.16,9.23-3.46,20.77a1.53,1.53,0,0,1-2,1.15,53.19,53.19,0,0,1-12.93-4.64c-1.14,1.17-3.85,2.21-8.35,3.74a42,42,0,0,1-13,2H346.1c-5.54-.26-10.93-4.61-12.67-9.78-2.87,6.89-6.3,10.34-10.35,10.34s-7.48-3.45-9.79-10.34q-3.41,10.33-10.36,10.34c-3.46,0-6.92-3.45-9.77-10.34a20.7,20.7,0,0,1-5.19,5.76c-3.44,3.35-9.21,4-9.21,4h-3.47c-4.62-.57-8.07-2.29-10.36-5.21-1.14,10.37-5.15,18.46-12.07,24.78-7.51,7.5-16.72,10.95-28.23,10.95-9.8,0-17.88-2.9-23.61-7.5-5.75-5.15-8.63-13.23-8.63-23,0-5.78,1.71-12.66,4.59-20.14,3.47-7.48,5.75-11.51,8.08-11.51a1.21,1.21,0,0,1,1.14,1.13,6.65,6.65,0,0,1-.54,2.9s-4.08,13.21-4.08,15.53C201.58,302.84,204.46,308,210.82,311.46Zm213,.57c4.06,1.72,8.65,2.28,13.84,2.28a88.53,88.53,0,0,0,19-1.71c7.52-2.3,11-5.21,11-9.23,0-1.69-3.46-5.72-11.56-12.67,0,0-1.07-.78-1.21-1.26a1.51,1.51,0,0,1,0-.6,16.52,16.52,0,0,1,1.21-2.14l7-13.24a2.31,2.31,0,0,1,2.29-1.16c1.69,0,3,3.36,3.56,4.23,1.23,1.93,1.61,2.71,3.31,3.84,3.5,2.28,7.5,3.43,13.25,3.43h8.65c4.43.21,10.72-2.31,10.39-4-.37-1.89-2.7-5.45-5.2-8-2.89-2.88-5.44-4.14-6.36-5.26a2.51,2.51,0,0,1-.55-1.12,10,10,0,0,1,1.16-2.91l6.91-13.24c.56-1.19,1-2,1.72-2.28,1.06-.44,1.94.49,2.89,1.8a42.87,42.87,0,0,1,3.44,6.82c.49,1.13,1.39,3.43,1.77,4.6.31,1,.81,3,1.1,4a46,46,0,0,1,1.75,11.5A43.91,43.91,0,0,1,508.61,294a27.75,27.75,0,0,1-3,4.62,26.05,26.05,0,0,1-8.62,7,27,27,0,0,1-4.57,2.21,24.61,24.61,0,0,1-7,1.26c-2.88,0-8.06-1.76-9.75-4a32,32,0,0,1-11,24.73c-6.89,6.91-16.12,10.39-27,10.39s-19.44-3-25.36-8.66c-4.12-3.9-8-12.68-7.47-21.88.55-8.76,2.53-20.1,7.73-28.62,4.21-6.89,8-5,4.5,1.34a32.28,32.28,0,0,0-4.15,15.76C412.91,304.54,416.93,309.15,423.82,312ZM430,279.29l8.5-8.5,8.5,8.5-8.5,8.5Zm102,14.91-6.91-6.95A4.25,4.25,0,0,1,524,285a5.65,5.65,0,0,1,1.14-3.43l6.91-13.83c.59-1.16.94-1.21,1.35-1.21s.75.12,1.51,1.21l7,12.07c1.67,2.51,4.65,4.63,13,4.12,7.58-.46,10.36-5.05,11.62-8.18a36.21,36.21,0,0,0,3-13.76c0-1.74.59-2.33,2.3-2.33s2.31.59,2.31,2.33c0,2.5.84,11.09,4.66,16.11,3.66,4.83,8.15,5.74,9.75,5.74h4c7.47,0,11.52-4,11.52-13.22,0-2.05.43-3.46,1.7-3.46s1.76,1.13,1.76,3.46c0,8.66,2.86,13.22,8,13.22a7,7,0,0,0,6.22-2.95c1.5-2.07,2.46-5.67,2.46-10.84,0-1.76.5-2.79,1.73-2.89s1.69,1.13,1.69,2.29a41.38,41.38,0,0,0,1.16,11,6,6,0,0,0,1.14,1.71,7.16,7.16,0,0,0,6.3,2.88c5.82,0,8.68-1.16,8.68-3.43,0-1.76-1.67-4-5.77-6.35-1-.54-1.93-1.48-1.68-2.31l5.15-11.51a2,2,0,0,1,1.71-1.15,2.71,2.71,0,0,1,1.72,1.15c1.87,2.18,2.88,6.34,3.5,12.1,0,0,.48,4.73.55,6.31s.1,5.2,0,6.93c-.61,10.08-2.5,13.63-4.62,16.67-2.83,4.05-5.73,5.78-9.24,5.78a9.3,9.3,0,0,1-6.3-2.89,24.43,24.43,0,0,1-4.63-7.47,13.9,13.9,0,0,1-3.32,6.3,10.21,10.21,0,0,1-7.59,4.06c-2.9,0-5.2-1.76-6.88-4.61-.59-.6-1.14-2.86-2.34-6.35-3.47,7.49-8.62,11-16.11,11H588s-5.45-.09-8.64-2.89a26.3,26.3,0,0,1-7.49-10.94c-1.07,2.41-3.14,8-6.92,10.73a16.58,16.58,0,0,1-8.78,3.1h-2.76c-5-.09-7.46-1.76-9.18-3.47,0,23-5.75,34-17.83,34a86.71,86.71,0,0,1-17.75-1.53c-1.14-.23-4.34-.78-4.56-2-.18-.94,4.43-4.57,4.43-4.57l16.69-14.39c8.08-6.9,11.56-11.52,11.56-13.83C536.72,301.68,535.53,298.19,532.07,294.2ZM617.71,239l8.31,8.3,8.29-8.3,8.5,8.5-8.5,8.51L626,247.71,617.71,256l-8.49-8.51Zm-.19-4.09,8.5-8.5,8.49,8.5-8.49,8.5Zm-29.38,91.59-8.5,8.51-8.29-8.31L563,335l-8.48-8.51L563,318l8.32,8.31,8.29-8.31Zm-87.43,12.25-8.51,8.5-8.49-8.5,8.3-8.3-8.3-8.3,8.49-8.5,8.51,8.5-8.31,8.3ZM769.26,211.49H82.31V197.17h687ZM634.4,77.55l-53.58,59,8.66,15.43Z"/></svg>
